<svg version="1.1" id="Layer_1" xmlns="http://www.w3.org/2000/svg" xmlns:xlink="http://www.w3.org/1999/xlink" x="0px" y="0px"
	 viewBox="0 0 360 182" style="enable-background:new 0 0 360 182;" xml:space="preserve">
<style type="text/css">
	.st0{fill:#000000;}
</style>
<path class="st0" d="M102.5,177.2L102.5,177.2c6.3-6.3,6.3-16.6,0-22.9l-44-44h285.4c9,0,16.2-7.3,16.2-16.2V91v-3.1
	c0-9-7.3-16.2-16.2-16.2H58.4l44-44c6.3-6.3,6.3-16.6,0-22.9l0,0c-6.3-6.3-16.6-6.3-22.9,0L4.7,79.5c-6.3,6.3-6.3,16.6,0,22.9
	l74.8,74.8C85.9,183.6,96.1,183.6,102.5,177.2z"/>
</svg>