<svg version="1.1" id="Layer_1" xmlns="http://www.w3.org/2000/svg" xmlns:xlink="http://www.w3.org/1999/xlink" x="0px" y="0px"
	 viewBox="0 0 360 182" style="enable-background:new 0 0 360 182;" xml:space="preserve">
<style type="text/css">
	.st0{fill:#000000;}
</style>
<path class="st0" d="M257.5,4.7L257.5,4.7c-6.3,6.3-6.3,16.6,0,22.9l44,44H16.2C7.3,71.7,0,79,0,87.9V91v3.1c0,9,7.3,16.2,16.2,16.2
	h285.4l-44,44c-6.3,6.3-6.3,16.6,0,22.9l0,0c6.3,6.3,16.6,6.3,22.9,0l74.8-74.8c6.3-6.3,6.3-16.6,0-22.9L280.5,4.7
	C274.1-1.6,263.9-1.6,257.5,4.7z"/>
</svg>
