<svg version="1.1" id="Layer_1" xmlns="http://www.w3.org/2000/svg" xmlns:xlink="http://www.w3.org/1999/xlink" x="0px" y="0px"
	 viewBox="0 0 684 166.32" style="enable-background:new 0 0 684 166.32;" xml:space="preserve">
<style type="text/css">
	.st0{fill:#9E7AE9;}
	.st1{fill:#FFFFFF;}
</style>
<g>
	<g>
		<path class="st0" d="M38.32,86.65c-2.03,6.11-3.16,12.85-3.16,19.93c0,25.59,14.71,46.71,33.73,49.81V86.65H38.32z"/>
	</g>
	<g>
		<path class="st0" d="M112.3,106.58c0-7.08-1.13-13.82-3.16-19.93H78.57v69.74C97.59,153.29,112.3,132.17,112.3,106.58z"/>
	</g>
	<path class="st1" d="M133.85,3.25c-0.68-2.41-3-3.73-5.4-3.08c-5.79,1.59-11.27,4.09-16.28,7.42
		c-10.84,7.21-19.34,17.88-24.99,31.03c-4.14-1.72-8.68-2.67-13.46-2.67c-4.77,0-9.32,0.95-13.46,2.67
		C54.63,25.47,46.13,14.8,35.29,7.59C30.27,4.25,24.8,1.76,19.01,0.17c-2.4-0.66-4.72,0.67-5.4,3.08c-0.68,2.42,0.61,4.75,3.02,5.41
		c15.61,4.28,28.76,16.98,35.93,34.42c-8.18,6.24-13.45,16.01-13.45,27h69.23c0-10.99-5.27-20.76-13.45-27
		c7.18-17.44,20.33-30.14,35.93-34.42C133.24,7.99,134.53,5.67,133.85,3.25z"/>
	<path class="st1" d="M147.32,149.69c0,0-6.13-23.4-6.62-23.91c-0.26-0.44-13.82-10.14-18.48-13.46c0.38-3.21,0.58-6.5,0.58-9.85
		c0-3.5-0.22-6.93-0.64-10.27c4.6-3.28,18.28-13.05,18.53-13.5c0.49-0.52,6.62-23.92,6.62-23.92c0.6-2.38-0.8-4.64-3.27-5.25
		c-2.47-0.61-4.79,0.73-5.39,3.11l-5.3,20.9l-12.97,9.11c-0.47-1.88-1.01-3.73-1.61-5.54h-90.1c-0.6,1.8-1.14,3.65-1.61,5.54
		L14.1,73.53l-5.3-20.9c-0.6-2.38-2.92-3.72-5.39-3.11c-2.47,0.61-3.87,2.86-3.27,5.25c0,0,6.13,23.4,6.62,23.92
		c0.26,0.45,13.93,10.22,18.53,13.5c-0.42,3.34-0.64,6.77-0.64,10.27c0,3.35,0.2,6.64,0.58,9.85c-4.66,3.32-18.22,13.02-18.48,13.46
		c-0.49,0.52-6.62,23.91-6.62,23.91c-0.6,2.38,0.8,4.64,3.27,5.25c0.4,0.1,0.8,0.15,1.19,0.15c1.99,0,3.7-1.26,4.21-3.26l5.3-20.9
		l12.87-9.04c6.32,25.77,24.86,44.44,46.75,44.44s40.44-18.67,46.75-44.44l12.87,9.04l5.3,20.9c0.32,1.26,1.11,2.25,2.21,2.8
		c0.61,0.3,1.3,0.46,2,0.46c0.39,0,0.79-0.05,1.18-0.14c1.1-0.27,2.04-0.89,2.66-1.75C147.42,152.19,147.64,150.95,147.32,149.69z
		 M68.89,156.38c-19.02-3.1-33.73-24.22-33.73-49.81c0-7.08,1.13-13.82,3.16-19.93h30.57V156.38z M78.57,156.38V86.65h30.57
		c2.03,6.11,3.16,12.85,3.16,19.93C112.3,132.17,97.59,153.29,78.57,156.38z"/>
	<g>
		<path class="st1" d="M237.41,69.67c0,4.26-3.75,7.81-8.07,7.81h-3.6v39.63c4.47,0,7.92,3.55,7.92,7.95c0,4.4-3.46,7.81-7.92,7.81
			c-8.79,0-15.99-7.1-15.99-15.77V77.48h-4.18c-4.47,0-7.93-3.55-7.93-7.81c0-4.4,3.46-7.81,7.93-7.81h4.18v-20.6
			c0-4.4,3.6-7.81,8.07-7.81c4.47,0,7.93,3.41,7.93,7.81v20.6h3.6C233.66,61.85,237.41,65.26,237.41,69.67z"/>
		<path class="st1" d="M382.68,97.51v27.84c0,4.12-3.46,7.53-7.64,7.53c-3.75,0-6.63-2.7-7.49-6.11
			c-5.48,3.84-11.96,6.11-19.16,6.11c-9.8,0-18.3-3.98-24.5-10.37c-6.2-6.53-9.8-15.34-9.8-25c0-9.8,3.6-18.61,9.8-25
			c6.2-6.53,14.7-10.65,24.5-10.65c7.2,0,13.69,2.41,19.16,6.25c0.86-3.55,3.75-6.25,7.49-6.25c4.18,0,7.64,3.41,7.64,7.67V97.51z
			 M367.41,97.51c0-5.97-2.16-11.08-5.62-14.63c-3.46-3.84-8.36-5.82-13.4-5.82c-5.19,0-10.09,1.99-13.4,5.82
			c-3.46,3.55-5.48,8.66-5.48,14.63c0,5.82,2.02,10.94,5.48,14.63c3.31,3.55,8.21,5.54,13.4,5.54c5.04,0,9.94-1.99,13.4-5.54
			C365.25,108.44,367.41,103.33,367.41,97.51z"/>
		<path class="st1" d="M399.24,97.51c0-19.74,16.71-35.51,36.6-35.65c8.65,0,16.71,3.13,22.91,7.81c3.31,2.56,3.89,7.39,1.59,10.51
			c-2.88,3.41-7.49,3.98-10.81,1.42c-3.75-2.7-8.36-4.55-13.69-4.55c-11.67,0-21.33,9.52-21.33,20.45
			c0,10.94,9.65,20.31,21.33,20.31c5.19,0,9.94-1.85,13.69-4.55c3.17-2.41,7.92-1.85,10.81,1.56c2.31,3.13,1.73,7.67-1.59,10.51
			c-6.2,4.4-14.27,7.53-22.91,7.53C415.95,132.88,399.24,116.97,399.24,97.51z"/>
		<path class="st1" d="M478.28,125.06V41.26c0-4.26,3.46-7.81,7.92-7.81s8.07,3.55,8.07,7.81V90.4l29.54-29.12
			c3.03-2.98,8.21-2.98,11.24,0c3.17,3.13,3.17,8.1,0,11.08l-21.61,21.31l22.19,26.28c2.74,3.41,2.31,8.38-1.15,11.08
			c-1.44,1.28-3.31,1.85-5.04,1.85c-2.31,0-4.61-0.99-6.05-2.84l-21.18-25.28l-7.92,7.81v12.5c0,4.26-3.6,7.81-8.07,7.81
			S478.28,129.33,478.28,125.06z"/>
		<path class="st1" d="M553.99,97.36c0.14-19.32,15.42-35.51,35.16-35.51c18.73,0,33.57,13.78,34.73,32.95c0,0.14,0,0.43,0,0.71
			c0,0.28,0,0.99-0.14,1.28c-0.43,3.41-3.46,5.68-7.49,5.68h-45.82c0.72,3.27,2.31,6.96,4.9,9.38c3.03,3.41,8.79,5.97,13.83,6.39
			c5.19,0.43,11.38-0.85,14.99-3.55c3.03-3.13,8.93-2.7,10.81-0.43c1.87,1.99,3.31,6.25,0,9.23c-7.06,6.39-15.56,9.38-25.79,9.38
			C569.4,132.73,554.13,116.68,553.99,97.36z M569.69,90.4h40.78c-1.44-5.68-8.79-14.06-21.33-15.06
			C576.9,75.92,570.84,84.58,569.69,90.4z"/>
		<path class="st1" d="M301.56,67.52c-1.29-4.06-5.15-5.28-8.96-4.62c-8.06,1.4-14.46,4.44-20.7,9.81v-5.14
			c0-7.45-13.62-7.46-13.62,0v59.71c0,7.45,13.62,7.46,13.62,0V96.55c0-13.48,18.41-18.96,25.03-20.11
			C300.73,75.78,302.61,70.82,301.56,67.52z"/>
		<path class="st1" d="M683.71,67.52c-1.29-4.06-5.15-5.28-8.96-4.62c-8.06,1.4-14.46,4.44-20.7,9.81v-5.14
			c0-7.45-13.62-7.46-13.62,0v59.71c0,7.45,13.62,7.46,13.62,0V96.55c0-13.48,18.41-18.96,25.03-20.11
			C682.88,75.78,684.76,70.82,683.71,67.52z"/>
	</g>
</g>
</svg>
