<svg version="1.1" id="Layer_1" xmlns="http://www.w3.org/2000/svg" xmlns:xlink="http://www.w3.org/1999/xlink" x="0px" y="0px"
	 viewBox="0 0 319.2 360" style="enable-background:new 0 0 319.2 360;" xml:space="preserve">
<style type="text/css">
	.st0{fill:#FFFFFF;}
</style>
<g>
	<path class="st0" d="M289.7,7c-1.5-5.2-6.5-8.1-11.7-6.7c-12.5,3.4-24.4,8.8-35.2,16.1c-23.5,15.6-41.9,38.7-54.1,67.2
		c-8.9-3.7-18.8-5.8-29.1-5.8s-20.2,2.1-29.1,5.8C118.3,55.1,99.8,32,76.4,16.4C65.5,9.2,53.7,3.8,41.1,0.4C36-1.1,30.9,1.8,29.5,7
		C28,12.3,30.8,17.3,36,18.7c33.8,9.3,62.3,36.8,77.8,74.5c-17.7,13.5-29.1,34.7-29.1,58.4h149.9c0-23.8-11.4-44.9-29.1-58.4
		c15.5-37.7,44-65.2,77.8-74.5C288.4,17.3,291.2,12.3,289.7,7z"/>
	<path class="st0" d="M318.9,324c0,0-13.3-50.6-14.3-51.8c-0.5-1-29.9-21.9-40-29.1c0.8-6.9,1.3-14.1,1.3-21.3
		c0-7.6-0.5-15-1.4-22.2c10-7.1,39.6-28.3,40.1-29.2c1-1.1,14.3-51.8,14.3-51.8c1.3-5.2-1.7-10-7.1-11.4c-5.4-1.3-10.4,1.6-11.7,6.7
		l-11.5,45.2l-28.1,19.7c-1-4.1-2.2-8.1-3.5-12h-195c-1.3,3.9-2.5,7.9-3.5,12l-28.1-19.7l-11.5-45.2c-1.3-5.2-6.3-8.1-11.7-6.7
		c-5.3,1.3-8.4,6.2-7.1,11.4c0,0,13.3,50.7,14.3,51.8c0.6,1,30.1,22.1,40.1,29.2c-0.9,7.2-1.4,14.7-1.4,22.2
		c0,7.2,0.4,14.4,1.3,21.3c-10.1,7.2-39.5,28.2-40,29.1C13.6,273.4,0.3,324,0.3,324c-1.3,5.2,1.7,10,7.1,11.4
		c0.9,0.2,1.7,0.3,2.6,0.3c4.3,0,8-2.7,9.1-7l11.5-45.2l27.9-19.6c13.7,55.8,53.8,96.2,101.2,96.2s87.5-40.4,101.2-96.2l27.9,19.6
		l11.5,45.2c0.7,2.7,2.4,4.9,4.8,6.1c1.3,0.6,2.8,1,4.3,1c0.9,0,1.7-0.1,2.6-0.3c2.4-0.6,4.4-1.9,5.8-3.8
		C319.1,329.4,319.6,326.7,318.9,324z M149.1,338.5c-41.2-6.7-73-52.4-73-107.8c0-15.3,2.4-29.9,6.8-43.1h66.2V338.5z M170.1,338.5
		V187.6h66.2c4.4,13.2,6.8,27.8,6.8,43.1C243.1,286.1,211.2,331.8,170.1,338.5z"/>
</g>
</svg>
