<svg version="1.1" id="Layer_1" xmlns="http://www.w3.org/2000/svg" xmlns:xlink="http://www.w3.org/1999/xlink" x="0px" y="0px"
	 viewBox="0 0 360 256.49" style="enable-background:new 0 0 360 256.49;" xml:space="preserve">
<style type="text/css">
	.st0{fill:#9E7AE9;}
	.st1{fill:#FFFFFF;}
</style>
<g>
	<g>
		<g>
			<path class="st0" d="M146.33,82.39c-1.93,5.81-3.01,12.21-3.01,18.95c0,24.33,13.99,44.41,32.07,47.36v-66.3H146.33z"/>
		</g>
		<g>
			<path class="st0" d="M216.67,101.33c0-6.73-1.07-13.14-3.01-18.95H184.6v66.3C202.68,145.75,216.67,125.67,216.67,101.33z"/>
		</g>
		<path class="st1" d="M237.16,3.09c-0.65-2.29-2.86-3.55-5.13-2.93c-5.5,1.51-10.71,3.89-15.48,7.06
			c-10.31,6.86-18.39,17-23.76,29.51c-3.93-1.64-8.26-2.54-12.79-2.54s-8.86,0.91-12.79,2.54c-5.36-12.51-13.45-22.65-23.76-29.51
			c-4.77-3.17-9.97-5.55-15.48-7.06c-2.28-0.63-4.49,0.63-5.13,2.93c-0.65,2.3,0.58,4.51,2.87,5.14
			c14.84,4.07,27.34,16.15,34.16,32.73c-7.78,5.93-12.78,15.23-12.78,25.67h65.83c0-10.44-5.01-19.74-12.78-25.67
			c6.82-16.58,19.33-28.66,34.16-32.73C236.58,7.6,237.81,5.39,237.16,3.09z"/>
		<path class="st1" d="M249.97,142.32c0,0-5.83-22.25-6.29-22.74c-0.24-0.42-13.14-9.64-17.57-12.8c0.36-3.05,0.55-6.18,0.55-9.37
			c0-3.33-0.21-6.59-0.6-9.77c4.38-3.12,17.38-12.41,17.62-12.84c0.46-0.49,6.3-22.74,6.3-22.74c0.57-2.27-0.76-4.41-3.11-4.99
			c-2.35-0.58-4.55,0.69-5.13,2.96l-5.04,19.87l-12.33,8.66c-0.45-1.79-0.96-3.55-1.53-5.26h-85.66c-0.57,1.71-1.08,3.47-1.53,5.26
			l-12.33-8.66l-5.04-19.87c-0.57-2.27-2.78-3.54-5.13-2.96c-2.35,0.58-3.68,2.72-3.11,4.99c0,0,5.83,22.25,6.3,22.74
			c0.24,0.42,13.24,9.71,17.62,12.84c-0.4,3.18-0.6,6.44-0.6,9.77c0,3.19,0.19,6.32,0.55,9.37c-4.43,3.16-17.33,12.38-17.57,12.8
			c-0.46,0.49-6.29,22.74-6.29,22.74c-0.57,2.27,0.76,4.41,3.11,4.99c0.38,0.09,0.76,0.14,1.13,0.14c1.89,0,3.52-1.2,4-3.1
			l5.04-19.87l12.24-8.59c6.01,24.5,23.64,42.25,44.45,42.25s38.45-17.75,44.45-42.25l12.24,8.59l5.04,19.87
			c0.3,1.2,1.05,2.14,2.1,2.66c0.58,0.29,1.23,0.43,1.9,0.43c0.37,0,0.75-0.05,1.12-0.14c1.04-0.26,1.94-0.85,2.52-1.66
			C250.06,144.7,250.27,143.52,249.97,142.32z M175.4,148.69c-18.08-2.95-32.07-23.03-32.07-47.36c0-6.73,1.07-13.14,3.01-18.95
			h29.07V148.69z M184.6,148.69v-66.3h29.07c1.93,5.81,3.01,12.21,3.01,18.95C216.67,125.67,202.68,145.75,184.6,148.69z"/>
	</g>
	<g>
		<path class="st1" d="M29.44,209.7c0,3.15-2.77,5.78-5.97,5.78H20.8v29.33c3.31,0,5.87,2.63,5.87,5.89c0,3.26-2.56,5.78-5.87,5.78
			c-6.51,0-11.84-5.26-11.84-11.67v-29.33H5.87c-3.31,0-5.87-2.63-5.87-5.78c0-3.26,2.56-5.78,5.87-5.78h3.09v-15.25
			c0-3.26,2.67-5.78,5.97-5.78s5.87,2.52,5.87,5.78v15.25h2.67C26.66,203.92,29.44,206.44,29.44,209.7z"/>
		<path class="st1" d="M136.97,230.31v20.61c0,3.05-2.56,5.57-5.65,5.57c-2.77,0-4.91-2-5.55-4.52c-4.05,2.84-8.85,4.52-14.19,4.52
			c-7.25,0-13.55-2.94-18.13-7.68c-4.59-4.84-7.25-11.36-7.25-18.5c0-7.25,2.67-13.77,7.25-18.5c4.59-4.84,10.88-7.89,18.13-7.89
			c5.33,0,10.13,1.79,14.19,4.63c0.64-2.63,2.77-4.63,5.55-4.63c3.09,0,5.65,2.52,5.65,5.68V230.31z M125.66,230.31
			c0-4.42-1.6-8.2-4.16-10.83c-2.56-2.84-6.19-4.31-9.92-4.31c-3.84,0-7.47,1.47-9.92,4.31c-2.56,2.63-4.05,6.41-4.05,10.83
			c0,4.31,1.49,8.1,4.05,10.83c2.45,2.63,6.08,4.1,9.92,4.1c3.73,0,7.36-1.47,9.92-4.1C124.06,238.41,125.66,234.62,125.66,230.31z"
			/>
		<path class="st1" d="M149.22,230.31c0-14.61,12.37-26.29,27.09-26.39c6.4,0,12.37,2.31,16.96,5.78c2.45,1.89,2.88,5.47,1.17,7.78
			c-2.13,2.52-5.55,2.94-8,1.05c-2.77-2-6.19-3.36-10.13-3.36c-8.64,0-15.78,7.04-15.78,15.14c0,8.1,7.15,15.04,15.78,15.04
			c3.84,0,7.36-1.37,10.13-3.36c2.35-1.79,5.87-1.37,8,1.16c1.71,2.31,1.28,5.68-1.17,7.78c-4.59,3.26-10.56,5.57-16.96,5.57
			C161.59,256.49,149.22,244.72,149.22,230.31z"/>
		<path class="st1" d="M207.73,250.71v-62.03c0-3.15,2.56-5.78,5.87-5.78c3.31,0,5.97,2.63,5.97,5.78v36.38l21.86-21.55
			c2.24-2.21,6.08-2.21,8.32,0c2.35,2.31,2.35,5.99,0,8.2l-16,15.77l16.42,19.45c2.03,2.52,1.71,6.2-0.85,8.2
			c-1.07,0.95-2.45,1.37-3.73,1.37c-1.71,0-3.41-0.74-4.48-2.1l-15.68-18.72l-5.87,5.78v9.25c0,3.15-2.67,5.78-5.97,5.78
			C210.29,256.49,207.73,253.86,207.73,250.71z"/>
		<path class="st1" d="M263.77,230.21c0.11-14.3,11.41-26.29,26.02-26.29c13.87,0,24.85,10.2,25.7,24.39c0,0.11,0,0.32,0,0.53
			c0,0.21,0,0.74-0.11,0.95c-0.32,2.52-2.56,4.21-5.55,4.21h-33.92c0.53,2.42,1.71,5.15,3.63,6.94c2.24,2.52,6.51,4.42,10.24,4.73
			c3.84,0.32,8.43-0.63,11.09-2.63c2.24-2.31,6.61-2,8-0.32c1.39,1.47,2.45,4.63,0,6.83c-5.23,4.73-11.52,6.94-19.09,6.94
			C275.18,256.39,263.87,244.51,263.77,230.21z M275.39,225.05h30.18c-1.07-4.21-6.51-10.41-15.79-11.15
			C280.72,214.33,276.24,220.74,275.39,225.05z"/>
		<path class="st1" d="M76.92,208.12c-0.96-3-3.81-3.91-6.63-3.42c-5.96,1.04-10.7,3.29-15.33,7.26v-3.81c0-5.51-10.08-5.52-10.08,0
			v44.2c0,5.51,10.08,5.52,10.08,0V229.6c0-9.98,13.63-14.03,18.53-14.89C76.31,214.23,77.7,210.56,76.92,208.12z"/>
		<path class="st1" d="M359.79,208.12c-0.96-3-3.81-3.91-6.63-3.42c-5.96,1.04-10.7,3.29-15.33,7.26v-3.81
			c0-5.51-10.08-5.52-10.08,0v44.2c0,5.51,10.08,5.52,10.08,0V229.6c0-9.98,13.63-14.03,18.53-14.89
			C359.17,214.23,360.57,210.56,359.79,208.12z"/>
	</g>
</g>
</svg>
