<svg version="1.1" id="Layer_1" xmlns="http://www.w3.org/2000/svg" xmlns:xlink="http://www.w3.org/1999/xlink" x="0px" y="0px"
	 viewBox="0 0 324 302.4" style="enable-background:new 0 0 324 302.4;" xml:space="preserve">
<style type="text/css">
	.st0{fill:#FFFFFF;}
</style>
<path class="st0" d="M295.17,283.36c-11.44-6.51-22.3-17.52-27.28-32.61c-0.98-2.96-0.11-5.35,2.17-7.11
	C303.17,218.08,324,180.96,324,139.61C324,62.51,251.47,0,162.01,0C72.53,0,0,62.51,0,139.61c0,77.14,72.53,139.66,162.01,139.66
	c11.69,0,23.09-1.07,34.08-3.1c2.69-0.5,4.89,0.14,6.68,1.24c22.17,13.59,55.19,24.99,84.14,24.99c9.33,0,12.91-5.91,12.91-11.29
	C299.82,287.64,297.94,284.94,295.17,283.36z M94.7,159.02c-9.74,0-17.63-7.88-17.63-17.6c0-9.72,7.89-17.6,17.63-17.6
	c9.74,0,17.63,7.88,17.63,17.6C112.33,151.14,104.44,159.02,94.7,159.02z M162,159.02c-9.74,0-17.63-7.88-17.63-17.6
	c0-9.72,7.89-17.6,17.63-17.6c9.74,0,17.63,7.88,17.63,17.6C179.63,151.14,171.74,159.02,162,159.02z M229.3,159.02
	c-9.74,0-17.63-7.88-17.63-17.6c0-9.72,7.89-17.6,17.63-17.6c9.74,0,17.63,7.88,17.63,17.6
	C246.93,151.14,239.04,159.02,229.3,159.02z"/>
</svg>
