<svg version="1.1" id="Layer_1" xmlns="http://www.w3.org/2000/svg" xmlns:xlink="http://www.w3.org/1999/xlink" x="0px" y="0px"
	 viewBox="0 0 360 360" style="enable-background:new 0 0 360 360;" xml:space="preserve">
<style type="text/css">
	.st0{fill:#FFFFFF;}
</style>
<g>
	<path class="st0" d="M221.3,12c0,0,0.1,0,0.3,0.1L266,30l0.1,0l0.1,0c0,0,0,0,0,0c0.2,0.3,0.6,1.6,0.1,3.3l-7.6,29.6l-1.9,7.4
		l5.9,4.8c7.6,6.2,14.3,12.8,19.8,19.6l5,6.1l7.6-2.2l29.3-8.4c0.6-0.2,1.2-0.3,1.8-0.3c0.6,0,1.6,0.1,1.8,0.6l18.8,44
		c0.3,0.9-1,2-1.9,2.5l-0.2,0.1l-0.2,0.1l-26.1,15.5l-6.6,3.9l0.8,7.7c1,9,1.1,18.3,0.3,27.9l-0.6,7.7l6.7,3.8l26.5,14.9
		c1.7,1,2.4,2.3,2.4,2.5c0,0,0,0,0,0.1l-0.1,0.1l-0.1,0.1L330.3,266c-0.3,0.6-2,0.6-2,0.6c-0.5,0-1.1-0.1-1.7-0.2l-29.5-7.6
		l-7.6-1.9l-4.8,6.1c-5.9,7.5-12.3,14.1-19.2,19.7l-6.1,5l2.2,7.6l8.3,29.3c0.3,1.2,0.4,3.2-0.5,3.6l-43.8,18.8c-0.1,0-0.2,0-0.2,0
		c-0.5,0-1.8-0.7-2.8-2.4l-15.4-26.3l-4-6.9l-7.9,1.1c-4.9,0.7-10.1,1-15.4,1c-3.9,0-8-0.2-12.1-0.5l-7.7-0.7l-3.8,6.8l-14.9,26.6
		l0,0.1l0,0.1c-0.8,1.5-1.8,2.1-2.2,2.1c0,0,0,0,0,0l-0.1,0l-0.1,0l-44.6-17.9l-0.1,0l-0.1,0c-0.1,0-0.1,0-0.1,0
		c-0.2-0.1-0.6-1.3-0.2-3l0-0.1l0-0.1l7.6-29.6l1.9-7.6l-6.2-4.8c-6.7-5.2-13.4-11.7-19.8-19.3l-5-5.8l-7.4,2.1l-29.5,8.3l0,0l0,0
		c-0.5,0.2-1.1,0.2-1.6,0.2c-1,0-1.5-0.3-1.5-0.3c0,0,0,0-0.1-0.1l0-0.1l0-0.1l-18.9-44l0,0l0,0c-0.3-0.6,0.8-1.9,2.2-2.8L41.6,207
		l6.7-3.9l-0.8-7.7c-1-9.4-1.1-18.5-0.3-27.9l0.7-7.7L41,156l-26.6-14.9l-0.1,0l-0.1,0c-1.5-0.8-2.4-2.1-2.2-2.7l17.8-44.3
		c0.1-0.2,0.4-0.7,1.8-0.7c0.5,0,1,0.1,1.6,0.2l0.1,0l0.1,0l29.4,7.5l7.4,1.9l4.9-5.9c6.4-7.8,12.8-14.2,19.5-19.8l6.1-5l-2.1-7.6
		l-8.3-29.6c-0.5-1.7-0.2-3,0-3.3l0.1,0l0.1,0l44.2-18.8l0.1,0l0.1,0c0.1-0.1,0.2-0.1,0.2-0.1c0.3,0,1.4,0.6,2.2,2l0,0.1l0,0.1
		l15.5,26.3l3.9,6.7l7.7-0.8c5.6-0.6,10.8-0.9,15.8-0.9c4.2,0,8.2,0.2,12,0.6l8,0.9l3.9-7l14.6-26.6C219.6,12.6,220.9,12,221.3,12
		 M105.2,150c-8,19.9-7.8,41.8,0.7,61.6c8.5,19.8,24.2,35.2,44.2,43.2l0,0l0,0c9.6,3.8,19.6,5.7,29.8,5.7c33.2,0,62.7-19.8,75-50.6
		c8.1-20,7.8-42-0.7-61.8c-8.5-19.8-24.2-35.1-44.2-43.1c-3.5-1.4-7.1-2.6-10.8-3.5c-6.3-1.6-12.9-2.4-19.4-2.4
		C146.7,99.3,117.4,119.2,105.2,150 M221.3,0c-5.3,0-10.2,3.4-13.1,8.5l-14.6,26.7c-4.4-0.5-8.9-0.7-13.3-0.7c-5.7,0-11.4,0.4-17,1
		L147.6,9.1C144.9,4.3,140.1,1,135,1c-1.7,0-3.4,0.3-5,1.1L85.7,20.9c-6.8,2.8-9,10.6-7,17.7L87,68.2c-7.7,6.3-14.7,13.6-21.2,21.5
		l-29.4-7.5c-1.6-0.5-3.2-0.7-4.8-0.7c-5.6,0-10.6,2.8-12.9,8.1L0.8,134.1c-2.7,6.9,1.3,14.1,7.7,17.5l26.6,14.9
		c-0.9,10.2-0.7,20.2,0.3,30.2L9.2,212.1c-6.4,3.8-10.1,11-7,17.9l18.9,44c2.2,5.3,7.2,7.9,12.7,7.9c1.6,0,3.3-0.2,4.9-0.7l29.5-8.3
		c6.4,7.5,13.6,14.7,21.6,21l-7.6,29.6c-2,7.1,0.6,14.8,7.5,17.5l44.6,17.9c1.6,0.7,3.2,1,4.7,1c5.2,0,10.1-3.5,12.8-8.5l14.9-26.6
		c4.4,0.4,8.8,0.6,13.1,0.6c5.8,0,11.5-0.4,17.1-1.1l15.5,26.3c3,4.9,7.9,8.2,13.1,8.2c1.6,0,3.2-0.3,4.8-0.9l44-18.9
		c6.9-3,9.3-10.7,7.3-17.8l-8.4-29.3c7.7-6.3,14.7-13.6,21-21.5l29.6,7.6c1.5,0.4,3.1,0.6,4.6,0.6c5.6,0,10.8-2.6,13.1-8L359,226
		c2.9-6.9-1-14-7.4-17.7L325,193.4c0.8-10,0.7-20.2-0.4-30.1l26.1-15.5c6.6-3.6,10-10.8,7.2-17.6l-18.9-44.2
		c-2.3-5.3-7.4-7.8-12.8-7.8c-1.7,0-3.4,0.2-5.1,0.7l-29.3,8.4c-6.4-7.8-13.6-14.8-21.5-21.2l7.6-29.6c1.8-7.1-0.6-14.8-7.5-17.5
		l-44.6-18C224.4,0.3,222.8,0,221.3,0L221.3,0z M179.9,248.7c-8.5,0-17.1-1.6-25.4-4.9c-35.3-14.2-52.4-54.2-38.2-89.3
		c10.6-26.9,36.3-43.2,63.5-43.2c5.5,0,11,0.7,16.5,2c3.1,0.8,6.2,1.8,9.2,3c35.2,13.9,52.4,54,38.3,89.3
		C233,232.4,207.2,248.7,179.9,248.7L179.9,248.7z"/>
</g>
</svg>
