<svg version="1.1" id="Layer_1" xmlns="http://www.w3.org/2000/svg" xmlns:xlink="http://www.w3.org/1999/xlink" x="0px" y="0px"
	 viewBox="0 0 360 360" style="enable-background:new 0 0 360 360;" xml:space="preserve">
<style type="text/css">
	.st0{fill:#4285F4;}
	.st1{fill:#34A853;}
	.st2{fill:#FBBC05;}
	.st3{fill:#EB4335;}
</style>
<g>
	<path class="st0" d="M356.4,184c0-14.8-1.2-25.6-3.8-36.8h-169V214h99.2c-2,16.6-12.8,41.6-36.8,58.4l-0.34,2.24l53.43,41.4
		l3.7,0.37C336.8,285,356.4,238.8,356.4,184"/>
	<path class="st1" d="M183.6,360c48.6,0,89.4-16,119.2-43.6l-56.8-44c-15.2,10.6-35.6,18-62.4,18c-47.6,0-88-31.4-102.4-74.8
		l-2.11,0.18l-55.56,43l-0.73,2.02C52.4,319.6,113.2,360,183.6,360"/>
	<path class="st2" d="M81.2,215.6c-3.8-11.2-6-23.2-6-35.6c0-12.4,2.2-24.4,5.8-35.6l-0.1-2.39L24.64,98.32L22.8,99.2
		C10.6,123.6,3.6,151,3.6,180s7,56.4,19.2,80.8L81.2,215.6"/>
	<path class="st3" d="M183.6,69.6c33.8,0,56.6,14.6,69.6,26.8L304,46.8C272.8,17.8,232.2,0,183.6,0C113.2,0,52.4,40.4,22.8,99.2
		L81,144.4C95.6,101,136,69.6,183.6,69.6"/>
</g>
</svg>