<svg version="1.1" id="Layer_1" xmlns="http://www.w3.org/2000/svg" xmlns:xlink="http://www.w3.org/1999/xlink" x="0px" y="0px"
	 viewBox="0 0 317.3 360" style="enable-background:new 0 0 317.3 360;" xml:space="preserve">
<style type="text/css">
	.st0{fill-rule:evenodd;clip-rule:evenodd;fill:#FFFFFF;}
</style>
<g>
	<path class="st0" d="M158.6,60.9c-0.5,0-0.9,0-1.4,0c-53.7,0.7-97.2,45.1-97.1,98.8c0,15.5,3.6,30.4,10.6,44.1
		c16.7,33,24.5,59.8,24.5,84.3v1.9c0,0.7,0.1,1.4,0.3,2.1c0,0,0,0,0,0v0c0,0,0,0,0,0.1l9.9,32.8c0.9,3,3.7,5.1,6.9,5.1h9.2l7.4,24.8
		c0.9,3.1,3.7,5.2,6.9,5.2h45.3c3.2,0,6-2.1,6.9-5.2l7.4-24.8h9.2c3.2,0,6-2.1,6.9-5.1l10-32.8c0,0,0,0,0-0.1v0c0,0,0,0,0,0
		c0.2-0.7,0.3-1.4,0.3-2.1v-2.3c0-29.4,12.1-58.4,25.2-85.4c6.5-13.5,9.8-27.9,9.8-43C257.1,105,213,60.9,158.6,60.9L158.6,60.9z
		 M175.9,345.5h-34.5l-4.6-15.5h43.8L175.9,345.5L175.9,345.5z M199.5,315.6h-81.7l-5.6-18.5h92.9L199.5,315.6L199.5,315.6z
		 M234.3,196c-13.1,27.1-25.4,56.2-26.6,86.7h-11.1h-75.8h-11.2c-1-25.4-9.4-52.7-26-85.5c-5.9-11.7-9-24.4-9-37.6
		c-0.1-45.8,37-83.7,82.8-84.3c46.9-0.6,85.2,37.3,85.2,84C242.7,172.2,239.9,184.5,234.3,196z"/>
	<g>
		<path class="st0" d="M158.6,39.7c4,0,7.2-3.2,7.2-7.2V7.2c0-4-3.2-7.2-7.2-7.2c-4,0-7.2,3.2-7.2,7.2v25.3
			C151.4,36.5,154.7,39.7,158.6,39.7z"/>
		<g>
			<path class="st0" d="M39.7,158.6c0-4-3.2-7.2-7.2-7.2H7.2c-4,0-7.2,3.2-7.2,7.2c0,4,3.2,7.2,7.2,7.2h25.3
				C36.5,165.9,39.7,162.6,39.7,158.6z"/>
			<path class="st0" d="M310.1,151.4h-25.3c-4,0-7.2,3.2-7.2,7.2c0,4,3.2,7.2,7.2,7.2h25.3c4,0,7.2-3.2,7.2-7.2
				C317.3,154.7,314.1,151.4,310.1,151.4z"/>
			<path class="st0" d="M53,89.3L31.1,76.7c-3.5-2-7.9-0.8-9.9,2.6c-2,3.5-0.8,7.9,2.6,9.9l21.9,12.6c1.1,0.7,2.4,1,3.6,1
				c2.5,0,4.9-1.3,6.3-3.6C57.6,95.7,56.5,91.3,53,89.3z"/>
			<path class="st0" d="M293.4,228.1l-21.9-12.6c-3.5-2-7.9-0.8-9.9,2.6c-2,3.5-0.8,7.9,2.6,9.9l21.9,12.6c1.1,0.7,2.4,1,3.6,1
				c2.5,0,4.9-1.3,6.3-3.6C298,234.5,296.9,230.1,293.4,228.1z"/>
			<path class="st0" d="M89.3,53c1.3,2.3,3.8,3.6,6.3,3.6c1.2,0,2.5-0.3,3.6-1c3.5-2,4.6-6.4,2.6-9.9L89.2,23.9
				c-2-3.5-6.4-4.6-9.9-2.6c-3.5,2-4.6,6.4-2.6,9.9L89.3,53z"/>
			<path class="st0" d="M218.1,55.7c1.1,0.7,2.4,1,3.6,1c2.5,0,4.9-1.3,6.3-3.6l12.6-21.9c2-3.5,0.8-7.9-2.6-9.9
				c-3.5-2-7.9-0.8-9.9,2.6l-12.6,21.9C213.5,49.2,214.7,53.7,218.1,55.7z"/>
			<path class="st0" d="M267.9,102.8c1.2,0,2.5-0.3,3.6-1l21.9-12.6c3.5-2,4.6-6.4,2.6-9.9c-2-3.5-6.4-4.6-9.9-2.6l-21.9,12.6
				c-3.5,2-4.6,6.4-2.6,9.9C263,101.5,265.4,102.8,267.9,102.8z"/>
			<path class="st0" d="M45.8,215.5l-21.9,12.6c-3.5,2-4.6,6.4-2.6,9.9c1.3,2.3,3.8,3.6,6.3,3.6c1.2,0,2.5-0.3,3.6-1L53,228
				c3.5-2,4.6-6.4,2.6-9.9C53.7,214.7,49.2,213.5,45.8,215.5z"/>
		</g>
	</g>
</g>
</svg>
