<svg version="1.1" id="Layer_1" xmlns="http://www.w3.org/2000/svg" xmlns:xlink="http://www.w3.org/1999/xlink" x="0px" y="0px"
	 viewBox="0 0 127.6 360" style="enable-background:new 0 0 127.6 360;" xml:space="preserve">
<style type="text/css">
	.st0{fill:#FFFFFF;}
</style>
<path class="st0" d="M104,107.8L50.2,298.1c-3.6,12.9-5.4,20.5-5.4,23.1c0,2.9,0.9,5.3,2.6,7.1c1.7,1.8,3.8,2.7,6.1,2.7
	c2.7,0,6-1.4,9.8-4.3c10.3-8.1,20.7-19.7,31.2-34.8l9.5,6.2c-12.3,18.8-26.8,34.7-43.4,47.5C48.2,355.2,36.5,360,25.3,360
	c-7.4,0-13.5-2.2-18.2-6.7c-4.7-4.4-7.1-10-7.1-16.7s2.3-17.8,6.8-33.4l35.3-121.6c5.8-19.9,8.7-32.4,8.7-37.5c0-4-1.4-7.2-4.2-9.8
	c-2.8-2.5-6.6-3.8-11.5-3.8c-4,0-12.2,1-24.7,3V123L104,107.8z M100.5,0c7.6,0,14,2.6,19.3,7.9c5.2,5.3,7.9,11.7,7.9,19.3
	c0,7.4-2.7,13.8-8,19.1c-5.3,5.3-11.7,8-19.1,8c-7.4,0-13.8-2.7-19.1-8c-5.3-5.3-8-11.7-8-19.1c0-7.6,2.6-14,7.9-19.3
	C86.4,2.6,92.9,0,100.5,0z"/>
</svg>
