<svg version="1.1" id="Layer_1" xmlns="http://www.w3.org/2000/svg" xmlns:xlink="http://www.w3.org/1999/xlink" x="0px" y="0px"
	 viewBox="0 0 360 360" style="enable-background:new 0 0 360 360;" xml:space="preserve">
<style type="text/css">
	.st0{fill:#F72806;}
</style>
<path class="st0" d="M180,0C80.6,0,0,80.6,0,180s80.6,180,180,180s180-80.6,180-180S279.4,0,180,0z M286.1,73.9
	c28.3,28.3,43.9,66,43.9,106.1c0,31.9-9.9,62.3-28.3,87.7L92.3,58.3C117.7,39.9,148.1,30,180,30C220.1,30,257.7,45.6,286.1,73.9z
	 M73.9,286.1C45.6,257.7,30,220.1,30,180c0-31.9,9.9-62.3,28.3-87.7l209.4,209.4C242.3,320.1,211.9,330,180,330
	C139.9,330,102.3,314.4,73.9,286.1z"/>
</svg>