<svg version="1.1" id="Layer_1" xmlns="http://www.w3.org/2000/svg" xmlns:xlink="http://www.w3.org/1999/xlink" x="0px" y="0px"
	 viewBox="0 0 360 360" style="enable-background:new 0 0 360 360;" xml:space="preserve">
<style type="text/css">
	.st0{fill:#FFFFFF;}
</style>
<g>
	<g>
		<path class="st0" d="M180,0C80.59,0,0,80.59,0,180c0,53.36,23.22,101.29,60.11,134.25C91.94,342.7,133.95,360,180,360
			s88.06-17.3,119.89-45.75C336.78,281.29,360,233.36,360,180C360,80.59,279.41,0,180,0z M295.97,295.97
			c-1.41,1.41-2.85,2.78-4.3,4.14c-24.22-36.44-65.19-60.39-111.66-60.39S92.56,263.67,68.34,300.1c-1.45-1.35-2.89-2.73-4.3-4.14
			C33.06,264.99,16,223.81,16,180c0-43.81,17.06-84.99,48.03-115.97C95.01,33.06,136.19,16,180,16c43.81,0,84.99,17.06,115.97,48.03
			S344,136.19,344,180C344,223.81,326.94,264.99,295.97,295.97z"/>
	</g>
	<g>
		<circle class="st0" cx="180" cy="164.85" r="65.14"/>
	</g>
</g>
</svg>
