<svg version="1.1" id="Layer_1" xmlns="http://www.w3.org/2000/svg" xmlns:xlink="http://www.w3.org/1999/xlink" x="0px" y="0px"
	 viewBox="0 0 360 360" style="enable-background:new 0 0 360 360;" xml:space="preserve">
<style type="text/css">
	.st0{fill:#FFFFFF;}
	.st1{fill-rule:evenodd;clip-rule:evenodd;fill:#FFFFFF;}
</style>
<path class="st0" d="M287.5,26c5.8,0,10.5,4.7,10.5,10.5v287.1c0,5.8-4.7,10.5-10.5,10.5H72.5c-5.8,0-10.5-4.7-10.5-10.5V36.5
	C62,30.7,66.7,26,72.5,26H287.5 M287.5,0H72.5C52.3,0,36,16.3,36,36.5v287.1c0,20.1,16.3,36.5,36.5,36.5h215.1
	c20.1,0,36.5-16.3,36.5-36.5V36.5C324,16.3,307.7,0,287.5,0L287.5,0z"/>
<g>
	<g>
		<path class="st1" d="M259.4,85.4H100.6c-4.9,0-8.8-4-8.8-8.8v0c0-4.9,4-8.8,8.8-8.8h158.9c4.9,0,8.8,4,8.8,8.8v0
			C268.3,81.4,264.3,85.4,259.4,85.4z"/>
	</g>
	<g>
		<path class="st1" d="M259.4,154.4H100.6c-4.9,0-8.8-4-8.8-8.8v0c0-4.9,4-8.8,8.8-8.8h158.9c4.9,0,8.8,4,8.8,8.8v0
			C268.3,150.4,264.3,154.4,259.4,154.4z"/>
	</g>
	<g>
		<path class="st1" d="M259.4,223.3H100.6c-4.9,0-8.8-4-8.8-8.8v0c0-4.9,4-8.8,8.8-8.8h158.9c4.9,0,8.8,4,8.8,8.8v0
			C268.3,219.4,264.3,223.3,259.4,223.3z"/>
	</g>
	<g>
		<path class="st1" d="M259.4,292.3H100.6c-4.9,0-8.8-4-8.8-8.8v0c0-4.9,4-8.8,8.8-8.8h158.9c4.9,0,8.8,4,8.8,8.8v0
			C268.3,288.3,264.3,292.3,259.4,292.3z"/>
	</g>
</g>
</svg>
