<?xml version="1.0" encoding="utf-8"?>
<!-- Generator: Adobe Illustrator 25.0.1, SVG Export Plug-In . SVG Version: 6.00 Build 0)  -->
<svg version="1.1" id="Layer_1" xmlns="http://www.w3.org/2000/svg" xmlns:xlink="http://www.w3.org/1999/xlink" x="0px" y="0px"
	 viewBox="0 0 360 360" style="enable-background:new 0 0 360 360;" xml:space="preserve">
<style type="text/css">
	.st0{fill:#FFFFFF;}
</style>
<path class="st0" d="M352.2,314.5L223.5,185.8c29.6-46.8,24.1-109.5-16.7-150.3C183.1,11.8,152.1,0,121.1,0c-31,0-62,11.8-85.6,35.5
	c-47.3,47.3-47.3,124,0,171.3c23.7,23.7,54.6,35.5,85.6,35.5c22.5,0,45-6.3,64.7-18.7l128.7,128.7c10.4,10.4,27.3,10.4,37.7,0v0
	C362.6,341.8,362.6,324.9,352.2,314.5z M57.5,184.8c-35.1-35.1-35.1-92.2,0-127.3c17-17,39.6-26.4,63.7-26.4
	c24,0,46.6,9.4,63.7,26.4c35.1,35.1,35.1,92.2,0,127.3c-17,17-39.6,26.4-63.7,26.4C97.1,211.1,74.5,201.8,57.5,184.8z"/>
</svg>

