<?xml version="1.0" encoding="utf-8"?>
<!-- Generator: Adobe Illustrator 25.0.1, SVG Export Plug-In . SVG Version: 6.00 Build 0)  -->
<svg version="1.1" id="Layer_1" xmlns="http://www.w3.org/2000/svg" xmlns:xlink="http://www.w3.org/1999/xlink" x="0px" y="0px"
	 viewBox="0 0 360 158.4" style="enable-background:new 0 0 360 158.4;" xml:space="preserve">
<style type="text/css">
	.st0{fill:#FFFFFF;}
</style>
<g>
	<g>
		<path class="st0" d="M180,6c33.9,0,66.6,7,97.4,20.8c28,12.6,53,30.2,74.4,52.4c-21.4,22.2-46.4,39.8-74.4,52.4
			c-30.7,13.8-63.5,20.8-97.4,20.8s-66.6-7-97.4-20.8c-28-12.6-53-30.2-74.4-52.4C29.7,57,54.7,39.4,82.6,26.8
			C113.4,13,146.1,6,180,6 M180,0C108.9,0,44.9,30.5,0,79.2c44.9,48.7,108.9,79.2,180,79.2s135.1-30.5,180-79.2
			C315.1,30.5,251.1,0,180,0L180,0z"/>
	</g>
	<g>
		<path class="st0" d="M180,17.7c33.6,0,60.9,27.6,60.9,61.5s-27.3,61.5-60.9,61.5s-60.9-27.6-60.9-61.5S146.4,17.7,180,17.7
			 M180,11.7c-36.9,0-66.9,30.2-66.9,67.5s29.9,67.5,66.9,67.5s66.9-30.2,66.9-67.5S216.9,11.7,180,11.7L180,11.7z"/>
	</g>
</g>
</svg>
